<svg width="184" height="75" viewBox="0 0 184 75" fill="none" xmlns="http://www.w3.org/2000/svg">
<rect y="20" width="184" height="55" rx="25" fill="#FF0000"/>
<path d="M35 0L61.8468 29.2279H8.15321L35 0Z" fill="#FF0000"/>
<path d="M19.2443 53.1591C18.3958 53.1591 17.6402 53.0133 16.9773 52.7216C16.3182 52.4261 15.7973 52.0208 15.4148 51.5057C15.036 50.9867 14.8409 50.3883 14.8295 49.7102H17.3068C17.322 49.9943 17.4148 50.2443 17.5852 50.4602C17.7595 50.6723 17.9905 50.8371 18.2784 50.9545C18.5663 51.072 18.8902 51.1307 19.25 51.1307C19.625 51.1307 19.9564 51.0644 20.2443 50.9318C20.5322 50.7992 20.7576 50.6155 20.9205 50.3807C21.0833 50.1458 21.1648 49.875 21.1648 49.5682C21.1648 49.2576 21.0777 48.983 20.9034 48.7443C20.733 48.5019 20.4867 48.3125 20.1648 48.1761C19.8466 48.0398 19.4678 47.9716 19.0284 47.9716H17.9432V46.1648H19.0284C19.3996 46.1648 19.7273 46.1004 20.0114 45.9716C20.2992 45.8428 20.5227 45.6648 20.6818 45.4375C20.8409 45.2064 20.9205 44.9375 20.9205 44.6307C20.9205 44.339 20.8504 44.0833 20.7102 43.8636C20.5739 43.6402 20.3807 43.4659 20.1307 43.3409C19.8845 43.2159 19.5966 43.1534 19.267 43.1534C18.9337 43.1534 18.6288 43.214 18.3523 43.3352C18.0758 43.4527 17.8542 43.6212 17.6875 43.8409C17.5208 44.0606 17.4318 44.3182 17.4205 44.6136H15.0625C15.0739 43.9432 15.2652 43.3523 15.6364 42.8409C16.0076 42.3295 16.5076 41.9299 17.1364 41.642C17.7689 41.3504 18.483 41.2045 19.2784 41.2045C20.0814 41.2045 20.7841 41.3504 21.3864 41.642C21.9886 41.9337 22.4564 42.3277 22.7898 42.8239C23.1269 43.3163 23.2936 43.8693 23.2898 44.483C23.2936 45.1345 23.0909 45.678 22.6818 46.1136C22.2765 46.5492 21.7481 46.8258 21.0966 46.9432V47.0341C21.9527 47.1439 22.6042 47.4413 23.0511 47.9261C23.5019 48.4072 23.7254 49.0095 23.7216 49.733C23.7254 50.3958 23.5341 50.9848 23.1477 51.5C22.7652 52.0152 22.2367 52.4205 21.5625 52.7159C20.8883 53.0114 20.1155 53.1591 19.2443 53.1591ZM28.0014 53.1648C27.4446 53.1648 26.9484 53.0682 26.5128 52.875C26.0772 52.678 25.7325 52.3883 25.4787 52.0057C25.2287 51.6193 25.1037 51.1383 25.1037 50.5625C25.1037 50.0777 25.1927 49.6705 25.3707 49.3409C25.5488 49.0114 25.7912 48.7462 26.098 48.5455C26.4048 48.3447 26.7533 48.1932 27.1435 48.0909C27.5374 47.9886 27.9503 47.9167 28.3821 47.875C28.8897 47.822 29.2988 47.7727 29.6094 47.7273C29.92 47.678 30.1454 47.6061 30.2855 47.5114C30.4257 47.4167 30.4957 47.2765 30.4957 47.0909V47.0568C30.4957 46.697 30.3821 46.4186 30.1548 46.2216C29.9313 46.0246 29.6132 45.9261 29.2003 45.9261C28.7647 45.9261 28.4181 46.0227 28.1605 46.2159C27.9029 46.4053 27.7325 46.6439 27.6491 46.9318L25.4105 46.75C25.5241 46.2197 25.7476 45.7614 26.081 45.375C26.4143 44.9848 26.8442 44.6856 27.3707 44.4773C27.901 44.2652 28.5147 44.1591 29.2116 44.1591C29.6965 44.1591 30.1605 44.2159 30.6037 44.3295C31.0507 44.4432 31.4465 44.6193 31.7912 44.858C32.1397 45.0966 32.4143 45.4034 32.6151 45.7784C32.8158 46.1496 32.9162 46.5947 32.9162 47.1136V53H30.6207V51.7898H30.5526C30.4124 52.0625 30.2249 52.303 29.9901 52.5114C29.7552 52.7159 29.473 52.8769 29.1435 52.9943C28.8139 53.108 28.4332 53.1648 28.0014 53.1648ZM28.6946 51.4943C29.0507 51.4943 29.3651 51.4242 29.6378 51.2841C29.9105 51.1402 30.1245 50.947 30.2798 50.7045C30.4351 50.4621 30.5128 50.1875 30.5128 49.8807V48.9545C30.437 49.0038 30.3329 49.0492 30.2003 49.0909C30.0715 49.1288 29.9257 49.1648 29.7628 49.1989C29.5999 49.2292 29.437 49.2576 29.2741 49.2841C29.1113 49.3068 28.9635 49.3277 28.831 49.3466C28.5469 49.3883 28.2988 49.4545 28.0866 49.5455C27.8745 49.6364 27.7098 49.7595 27.5923 49.9148C27.4749 50.0663 27.4162 50.2557 27.4162 50.483C27.4162 50.8125 27.5355 51.0644 27.7741 51.2386C28.0166 51.4091 28.3234 51.4943 28.6946 51.4943ZM34.794 53V44.2727H42.4247V53H40.1122V46.1761H37.0781V53H34.794ZM48.2997 53.1705C47.4171 53.1705 46.6539 52.983 46.0099 52.608C45.3698 52.2292 44.8755 51.7027 44.527 51.0284C44.1785 50.3504 44.0043 49.5644 44.0043 48.6705C44.0043 47.7689 44.1785 46.9811 44.527 46.3068C44.8755 45.6288 45.3698 45.1023 46.0099 44.7273C46.6539 44.3485 47.4171 44.1591 48.2997 44.1591C49.1823 44.1591 49.9437 44.3485 50.5838 44.7273C51.2277 45.1023 51.724 45.6288 52.0724 46.3068C52.4209 46.9811 52.5952 47.7689 52.5952 48.6705C52.5952 49.5644 52.4209 50.3504 52.0724 51.0284C51.724 51.7027 51.2277 52.2292 50.5838 52.608C49.9437 52.983 49.1823 53.1705 48.2997 53.1705ZM48.3111 51.2955C48.7126 51.2955 49.0478 51.1818 49.3168 50.9545C49.5857 50.7235 49.7884 50.4091 49.9247 50.0114C50.0649 49.6136 50.1349 49.161 50.1349 48.6534C50.1349 48.1458 50.0649 47.6932 49.9247 47.2955C49.7884 46.8977 49.5857 46.5833 49.3168 46.3523C49.0478 46.1212 48.7126 46.0057 48.3111 46.0057C47.9058 46.0057 47.5649 46.1212 47.2884 46.3523C47.0156 46.5833 46.8092 46.8977 46.669 47.2955C46.5327 47.6932 46.4645 48.1458 46.4645 48.6534C46.4645 49.161 46.5327 49.6136 46.669 50.0114C46.8092 50.4091 47.0156 50.7235 47.2884 50.9545C47.5649 51.1818 47.9058 51.2955 48.3111 51.2955ZM53.6577 53L53.6463 51.0795H53.9361C54.1406 51.0795 54.3168 51.0303 54.4645 50.9318C54.616 50.8295 54.741 50.6648 54.8395 50.4375C54.938 50.2102 55.0156 49.9091 55.0724 49.5341C55.1293 49.1553 55.1671 48.6894 55.1861 48.1364L55.3281 44.2727H61.9645V53H59.6577V46.1761H57.5043L57.3679 48.8409C57.3338 49.572 57.2448 50.2008 57.1009 50.7273C56.9607 51.2538 56.7656 51.6856 56.5156 52.0227C56.2656 52.3561 55.9645 52.6023 55.6122 52.7614C55.2599 52.9205 54.8509 53 54.3849 53H53.6577ZM69.9148 47.6705V49.5739H65.358V47.6705H69.9148ZM66.1534 44.2727V53H63.8409V44.2727H66.1534ZM71.4318 44.2727V53H69.1364V44.2727H71.4318ZM75.6222 49.8068L78.7642 44.2727H81.1506V53H78.8438V47.4489L75.7131 53H73.3097V44.2727H75.6222V49.8068ZM82.2145 46.1761V44.2727H90.1236V46.1761H87.3111V53H85.0043V46.1761H82.2145ZM95.2557 53.1705C94.358 53.1705 93.5852 52.9886 92.9375 52.625C92.2936 52.2576 91.7973 51.7386 91.4489 51.0682C91.1004 50.3939 90.9261 49.5966 90.9261 48.6761C90.9261 47.7784 91.1004 46.9905 91.4489 46.3125C91.7973 45.6345 92.2879 45.1061 92.9205 44.7273C93.5568 44.3485 94.303 44.1591 95.1591 44.1591C95.7348 44.1591 96.2708 44.2519 96.767 44.4375C97.267 44.6193 97.7027 44.8939 98.0739 45.2614C98.4489 45.6288 98.7405 46.0909 98.9489 46.6477C99.1572 47.2008 99.2614 47.8485 99.2614 48.5909V49.2557H91.892V47.7557H96.983C96.983 47.4072 96.9072 47.0985 96.7557 46.8295C96.6042 46.5606 96.3939 46.3504 96.125 46.1989C95.8598 46.0436 95.5511 45.9659 95.1989 45.9659C94.8314 45.9659 94.5057 46.0511 94.2216 46.2216C93.9413 46.3883 93.7216 46.6136 93.5625 46.8977C93.4034 47.178 93.322 47.4905 93.3182 47.8352V49.2614C93.3182 49.6932 93.3977 50.0663 93.5568 50.3807C93.7197 50.6951 93.9489 50.9375 94.2443 51.108C94.5398 51.2784 94.8902 51.3636 95.2955 51.3636C95.5644 51.3636 95.8106 51.3258 96.0341 51.25C96.2576 51.1742 96.4489 51.0606 96.608 50.9091C96.767 50.7576 96.8883 50.572 96.9716 50.3523L99.2102 50.5C99.0966 51.0379 98.8636 51.5076 98.5114 51.9091C98.1629 52.3068 97.7121 52.6174 97.1591 52.8409C96.6098 53.0606 95.9754 53.1705 95.2557 53.1705ZM107.771 46.0795C107.499 46.0795 107.256 46.1326 107.044 46.2386C106.832 46.3447 106.665 46.4924 106.544 46.6818C106.427 46.8674 106.368 47.0871 106.368 47.3409H104.192C104.192 46.8674 104.283 46.4356 104.464 46.0455C104.646 45.6515 104.9 45.3125 105.226 45.0284C105.552 44.7405 105.93 44.5189 106.362 44.3636C106.798 44.2083 107.268 44.1307 107.771 44.1307C108.65 44.1307 109.389 44.3277 109.987 44.7216C110.589 45.1117 111.044 45.6402 111.351 46.3068C111.661 46.9697 111.817 47.714 111.817 48.5398V48.75C111.817 49.5795 111.663 50.3277 111.357 50.9943C111.05 51.661 110.595 52.1894 109.993 52.5795C109.394 52.9659 108.654 53.1591 107.771 53.1591C107.067 53.1591 106.446 53.0208 105.908 52.7443C105.37 52.464 104.949 52.0682 104.646 51.5568C104.343 51.0417 104.192 50.4299 104.192 49.7216H106.368C106.368 49.9905 106.425 50.2367 106.538 50.4602C106.652 50.6837 106.813 50.8617 107.021 50.9943C107.233 51.1269 107.483 51.1951 107.771 51.1989C108.222 51.1951 108.572 51.0682 108.822 50.8182C109.076 50.5682 109.252 50.2557 109.351 49.8807C109.453 49.5019 109.504 49.125 109.504 48.75V48.5398C109.504 48.1269 109.451 47.733 109.345 47.358C109.243 46.983 109.065 46.6761 108.811 46.4375C108.561 46.1989 108.214 46.0795 107.771 46.0795ZM110.203 47.9205V49.3523H107.118V47.9205H110.203ZM112.558 46.1761V44.2727H120.467V46.1761H117.655V53H115.348V46.1761H112.558ZM125.565 53.1705C124.683 53.1705 123.92 52.983 123.276 52.608C122.635 52.2292 122.141 51.7027 121.793 51.0284C121.444 50.3504 121.27 49.5644 121.27 48.6705C121.27 47.7689 121.444 46.9811 121.793 46.3068C122.141 45.6288 122.635 45.1023 123.276 44.7273C123.92 44.3485 124.683 44.1591 125.565 44.1591C126.448 44.1591 127.209 44.3485 127.849 44.7273C128.493 45.1023 128.99 45.6288 129.338 46.3068C129.687 46.9811 129.861 47.7689 129.861 48.6705C129.861 49.5644 129.687 50.3504 129.338 51.0284C128.99 51.7027 128.493 52.2292 127.849 52.608C127.209 52.983 126.448 53.1705 125.565 53.1705ZM125.577 51.2955C125.978 51.2955 126.313 51.1818 126.582 50.9545C126.851 50.7235 127.054 50.4091 127.19 50.0114C127.33 49.6136 127.401 49.161 127.401 48.6534C127.401 48.1458 127.33 47.6932 127.19 47.2955C127.054 46.8977 126.851 46.5833 126.582 46.3523C126.313 46.1212 125.978 46.0057 125.577 46.0057C125.171 46.0057 124.83 46.1212 124.554 46.3523C124.281 46.5833 124.075 46.8977 123.935 47.2955C123.798 47.6932 123.73 48.1458 123.73 48.6534C123.73 49.161 123.798 49.6136 123.935 50.0114C124.075 50.4091 124.281 50.7235 124.554 50.9545C124.83 51.1818 125.171 51.2955 125.577 51.2955ZM135.138 53V44.2727H142.768V53H140.456V46.1761H137.422V53H135.138ZM148.643 53.1705C147.761 53.1705 146.998 52.983 146.354 52.608C145.714 52.2292 145.219 51.7027 144.871 51.0284C144.522 50.3504 144.348 49.5644 144.348 48.6705C144.348 47.7689 144.522 46.9811 144.871 46.3068C145.219 45.6288 145.714 45.1023 146.354 44.7273C146.998 44.3485 147.761 44.1591 148.643 44.1591C149.526 44.1591 150.287 44.3485 150.928 44.7273C151.571 45.1023 152.068 45.6288 152.416 46.3068C152.765 46.9811 152.939 47.7689 152.939 48.6705C152.939 49.5644 152.765 50.3504 152.416 51.0284C152.068 51.7027 151.571 52.2292 150.928 52.608C150.287 52.983 149.526 53.1705 148.643 53.1705ZM148.655 51.2955C149.056 51.2955 149.392 51.1818 149.661 50.9545C149.929 50.7235 150.132 50.4091 150.268 50.0114C150.409 49.6136 150.479 49.161 150.479 48.6534C150.479 48.1458 150.409 47.6932 150.268 47.2955C150.132 46.8977 149.929 46.5833 149.661 46.3523C149.392 46.1212 149.056 46.0057 148.655 46.0057C148.25 46.0057 147.909 46.1212 147.632 46.3523C147.359 46.5833 147.153 46.8977 147.013 47.2955C146.876 47.6932 146.808 48.1458 146.808 48.6534C146.808 49.161 146.876 49.6136 147.013 50.0114C147.153 50.4091 147.359 50.7235 147.632 50.9545C147.909 51.1818 148.25 51.2955 148.655 51.2955ZM154.001 53L153.99 51.0795H154.28C154.484 51.0795 154.661 51.0303 154.808 50.9318C154.96 50.8295 155.085 50.6648 155.183 50.4375C155.282 50.2102 155.359 49.9091 155.416 49.5341C155.473 49.1553 155.511 48.6894 155.53 48.1364L155.672 44.2727H162.308V53H160.001V46.1761H157.848L157.712 48.8409C157.678 49.572 157.589 50.2008 157.445 50.7273C157.304 51.2538 157.109 51.6856 156.859 52.0227C156.609 52.3561 156.308 52.6023 155.956 52.7614C155.604 52.9205 155.195 53 154.729 53H154.001ZM168.162 53.1705C167.264 53.1705 166.491 52.9886 165.844 52.625C165.2 52.2576 164.704 51.7386 164.355 51.0682C164.007 50.3939 163.832 49.5966 163.832 48.6761C163.832 47.7784 164.007 46.9905 164.355 46.3125C164.704 45.6345 165.194 45.1061 165.827 44.7273C166.463 44.3485 167.209 44.1591 168.065 44.1591C168.641 44.1591 169.177 44.2519 169.673 44.4375C170.173 44.6193 170.609 44.8939 170.98 45.2614C171.355 45.6288 171.647 46.0909 171.855 46.6477C172.063 47.2008 172.168 47.8485 172.168 48.5909V49.2557H164.798V47.7557H169.889C169.889 47.4072 169.813 47.0985 169.662 46.8295C169.51 46.5606 169.3 46.3504 169.031 46.1989C168.766 46.0436 168.457 45.9659 168.105 45.9659C167.738 45.9659 167.412 46.0511 167.128 46.2216C166.848 46.3883 166.628 46.6136 166.469 46.8977C166.31 47.178 166.228 47.4905 166.224 47.8352V49.2614C166.224 49.6932 166.304 50.0663 166.463 50.3807C166.626 50.6951 166.855 50.9375 167.151 51.108C167.446 51.2784 167.796 51.3636 168.202 51.3636C168.471 51.3636 168.717 51.3258 168.94 51.25C169.164 51.1742 169.355 51.0606 169.514 50.9091C169.673 50.7576 169.795 50.572 169.878 50.3523L172.116 50.5C172.003 51.0379 171.77 51.5076 171.418 51.9091C171.069 52.3068 170.618 52.6174 170.065 52.8409C169.516 53.0606 168.882 53.1705 168.162 53.1705Z" fill="white"/>
</svg>
